<svg xmlns="http://www.w3.org/2000/svg" viewBox="0 0 18 18" width="18" height="18">
	<style>
		tspan { white-space:pre }
		.shp0 { fill: #7eb151 } 
	</style>
	<g id="б1">
		<g id="шапка">
			<path id="телефон" fill-rule="evenodd" class="shp0" d="M3.83 1.22C4.87 1.21 5.18 1.73 5.69 2.24C6.22 2.77 6.75 3.3 7.28 3.83C7.57 4.13 7.74 4.26 7.88 4.74C7.91 4.84 7.95 5.07 7.91 5.22C7.79 5.72 7.51 5.95 7.2 6.26C7.03 6.44 6.85 6.62 6.67 6.81C6.55 6.92 6.2 7.19 6.16 7.35C6.24 7.44 6.28 7.56 6.34 7.66C6.48 7.86 6.64 8.05 6.78 8.25C6.94 8.46 7.17 8.64 7.33 8.85C7.74 9.39 8.32 9.94 8.86 10.35C8.94 10.41 9 10.51 9.08 10.57C9.3 10.73 9.51 10.89 9.74 11.04C9.86 11.12 9.97 11.24 10.14 11.26C10.3 11.02 10.58 10.82 10.78 10.62C11.2 10.2 11.55 9.67 12.22 9.51C12.48 9.44 12.77 9.55 12.92 9.62C13.53 9.91 13.92 10.46 14.38 10.91C14.76 11.3 15.14 11.68 15.53 12.06C15.7 12.24 15.95 12.4 16.06 12.65C16.12 12.8 16.16 12.98 16.2 13.14C16.25 13.33 16.21 13.66 16.17 13.8C16.01 14.25 15.48 14.63 15.16 14.95C14.89 15.22 14.65 15.53 14.28 15.71C13.99 15.86 13.64 15.92 13.3 16.01C12.78 16.14 11.95 16.09 11.47 15.97C11.37 15.96 11.27 15.94 11.16 15.93C10.83 15.84 10.47 15.78 10.16 15.64C9.68 15.43 9.21 15.23 8.77 14.98C8.52 14.85 8.27 14.65 8.02 14.51C5.87 13.31 3.97 11.32 2.77 9.16C2.64 8.93 2.47 8.69 2.33 8.47C2.15 8.17 2.03 7.84 1.89 7.5C1.37 6.27 1.06 4.37 1.75 3.05C1.9 2.74 2.22 2.52 2.46 2.28C2.72 2.01 2.98 1.74 3.24 1.48C3.33 1.41 3.45 1.34 3.55 1.29C3.64 1.25 3.76 1.28 3.83 1.22ZM3.94 2.02C3.87 2.07 3.78 2.09 3.72 2.13C3.44 2.42 3.16 2.71 2.88 2.99C2.74 3.13 2.52 3.27 2.44 3.47C1.73 5.06 2.46 7.14 3.13 8.25C3.65 9.1 4.19 9.92 4.78 10.69C4.87 10.82 5.01 10.92 5.1 11.04C5.27 11.26 5.45 11.48 5.67 11.64C5.74 11.69 5.77 11.79 5.83 11.84C6.1 12.06 6.33 12.33 6.6 12.54C6.92 12.78 7.22 13.04 7.55 13.27C8.17 13.7 8.82 14.07 9.5 14.44C10.37 14.91 11.89 15.54 13.28 15.17C13.5 15.11 13.68 15.1 13.87 15.02C14.11 14.91 14.27 14.71 14.45 14.53C14.74 14.24 15.03 13.96 15.33 13.67C15.36 13.63 15.36 13.58 15.4 13.54C15.4 12.85 15.08 12.77 14.74 12.43C14.63 12.31 14.53 12.18 14.41 12.06C14.05 11.7 13.68 11.36 13.32 11C13.15 10.83 12.79 10.34 12.53 10.31C12.3 10.17 11.95 10.58 11.86 10.68C11.49 11.03 11.13 11.39 10.76 11.75C10.66 11.86 10.46 12.14 10.31 12.17C10.2 12.1 10.03 12.12 9.9 12.06C9.67 11.96 9.42 11.81 9.21 11.66C8.16 10.93 7.07 9.91 6.31 8.89C5.91 8.36 5.36 7.88 5.25 7.08C5.49 6.92 5.72 6.61 5.93 6.4C6.28 6.05 6.64 5.72 6.97 5.35C6.98 5.35 6.99 5.35 7 5.35C7.11 5.22 7.13 5.03 7.11 4.83C7.06 4.79 7.04 4.73 7 4.67C6.88 4.51 6.66 4.33 6.51 4.18C6.02 3.7 5.54 3.23 5.05 2.75C4.75 2.45 4.54 2.02 3.94 2.02Z" />
		</g>
	</g>
</svg>